<?xml version="1.0" encoding="utf-8"?>
<!-- Generator: Adobe Illustrator 27.5.0, SVG Export Plug-In . SVG Version: 6.00 Build 0)  -->
<svg version="1.1" id="Layer_1" xmlns="http://www.w3.org/2000/svg" xmlns:xlink="http://www.w3.org/1999/xlink" x="0px" y="0px"
	 viewBox="0 0 3000 1800" style="enable-background:new 0 0 3000 1800;" xml:space="preserve">
<path style="fill:#FFFFFF;" d="M3000,1800c-747.74,0-2252.446,0-3000,0C0,1351.356,0,448.532,0,0c747.74,0,2252.446,0,3000,0
	C3000,448.644,3000,1351.468,3000,1800z"/>
<path style="fill:#DCECFD;" d="M418.152,1633.033c577.786,0,1740.487,0,2318.129,0c26.541-363.542,126.21-814.152-137.348-1109.983
	c-198.758-265.218-588.97-387.962-911.738-284.108c-230.692,60.808-414.388,262.811-596.094,407.729
	c-63.688-10.083-191.087-30.855-254.703-40.971c-269.614-48.908-543.078,155.525-574.039,426.715
	C233.95,1230.16,364.304,1447.614,418.152,1633.033z"/>
<path style="fill:#BEDBFA;" d="M738.865,663.347c-113.842,177.714-25.64,476.714,192.496,639.668
	c68.611,58.61,190.781,117.009,269.746,162.225c38.634,16.357,154.436,98.198,198.198,92.723
	c19.408,0.096,38.837-4.591,56.467-14.07c176.585-92.711,500-298.505,635.629-481.749
	c-37.645,18.659-671.521,312.706-726.618,301.149C1149.317,1331.811,702.801,985.52,738.865,663.347z"/>
<g>
	<defs>
		<path id="XMLID_00000154390415569848529920000005602165083143774353_" d="M2077.953,778.774
			c-13.935-449.28-665.819-448.951-679.606,0c-25.53-493.027-742.309-423.839-673.38,64.689c-0.01,0.001-0.031,0.004-0.041,0.005
			c-36.861,300.935,516.39,592.464,673.421,626.63c158.316-34.965,709.51-324.997,673.421-626.63
			c-0.01-0.001-0.031-0.004-0.041-0.005C2075.824,822.219,2077.954,800.605,2077.953,778.774z"/>
	</defs>
	<use xlink:href="#XMLID_00000154390415569848529920000005602165083143774353_"  style="overflow:visible;fill:#F9CE68;"/>
	<clipPath id="XMLID_00000179608667746551697910000002535249510826627231_">
		<use xlink:href="#XMLID_00000154390415569848529920000005602165083143774353_"  style="overflow:visible;"/>
	</clipPath>
	<path style="clip-path:url(#XMLID_00000179608667746551697910000002535249510826627231_);fill:#F08F3C;" d="M738.865,663.347
		c-29.354,291.244,168.945,615.096,651.157,729.133c192.952-41.405,404.729-158.293,665.527-363.807
		c-100.273,149.454-393.876,414.894-657.202,492.087C1085.59,1351.867,522.503,1149.651,738.865,663.347"/>
	<path style="clip-path:url(#XMLID_00000179608667746551697910000002535249510826627231_);fill:#F08F3C;" d="M1660.907,997.707
		c16.063-0.951,36.957-8.046,59.39-21.303c14.489-1.755,207.705-34.197,223.02-44.791c7.673,51.836,23.114,156.146,30.785,207.969
		c11.887-5.627,35.809-16.95,47.693-22.576c-4.726-70.421-14.236-212.133-18.96-282.537
		c-72.981,29.576-219.701,89.026-292.653,118.591C1697.938,964.17,1673.158,986.594,1660.907,997.707"/>
	<path style="clip-path:url(#XMLID_00000179608667746551697910000002535249510826627231_);fill:#F08F3C;" d="M1945.324,509.413
		c-34.326,94.931,6.029,137.868,81.374,187.335c11.858-13.685,35.721-41.223,47.577-54.904
		C2064.097,617.825,1989.406,509.02,1945.324,509.413"/>
</g>
<path style="fill:#59445A;" d="M1974.034,519.36c-34.886,22.089-24.762,76.277-1.099,103.431c-0.933-6.913-1.866-13.825-2.8-20.738
	c2.939,23.867,24.904,39.471,46.322,46.367c-1.366-2.243-2.732-4.485-4.099-6.728c23.15,18.534,50.955,31.207,80.13,36.52
	c2.432-27.38,12.19-54.237,8.421-81.948C2092.403,538.325,2022.312,526.121,1974.034,519.36z"/>
<g>
	<path style="fill:#152E60;" d="M2013.875,1576.51c-1.241,4.349-3.739,13.1-4.98,17.448l-26.898,11.528
		c-10.712,5.994-38.787,10.777-37.462,27.548l0,0l0,0c27.691,0,83.414,0,111.097,0c-1.051-14.088-3.164-42.438-4.214-56.523
		C2042.06,1576.51,2023.23,1576.51,2013.875,1576.51z"/>
	<path style="fill:#152E60;" d="M2194.925,1576.51c-1.247,4.357-3.735,13.094-4.98,17.448
		c-9.694,11.494-27.103,22.277-26.594,39.076l0,0l0,0c18.278,0,55.059,0,73.332,0c-1.05-14.088-3.164-42.438-4.214-56.523
		C2223.111,1576.51,2204.28,1576.51,2194.925,1576.51z"/>
	<g>
		<defs>
			<path id="XMLID_00000163048254827909370920000008987651524555883953_" d="M1993.486,905.416
				c3.191,167.268,9.613,503.868,12.804,671.094c11.248,0,33.883,0,45.129,0c25.844-119.92,77.811-360.961,103.645-480.832
				c-2.27-47.723-6.797-144.039-9.063-191.772C2107.986,904.283,2031.49,905.04,1993.486,905.416z"/>
		</defs>
		<use xlink:href="#XMLID_00000163048254827909370920000008987651524555883953_"  style="overflow:visible;fill:#324D90;"/>
		<clipPath id="XMLID_00000178184063281255901200000008283543840989378947_">
			<use xlink:href="#XMLID_00000163048254827909370920000008987651524555883953_"  style="overflow:visible;"/>
		</clipPath>
	</g>
	<g>
		<defs>
			<path id="XMLID_00000124871444091658330390000005848686461366641337_" d="M2236.933,903.907
				c-0.334,167.644-1.007,505.001-1.341,672.603c-11.784,0-35.496,0-47.277,0c-31.035-167.644-93.487-505.001-124.514-672.603
				C2106.953,903.907,2193.791,903.907,2236.933,903.907z"/>
		</defs>
		<use xlink:href="#XMLID_00000124871444091658330390000005848686461366641337_"  style="overflow:visible;fill:#324D90;"/>
		<clipPath id="XMLID_00000099638884708888154130000016654684657956838537_">
			<use xlink:href="#XMLID_00000124871444091658330390000005848686461366641337_"  style="overflow:visible;"/>
		</clipPath>
	</g>
	<g>
		<g>
			<defs>
				<path id="XMLID_00000061451990808531499750000003804141022675930527_" d="M2076.781,554.586
					c-0.611-5.039-1.735-10.075-3.295-14.927c-0.001,0.001-0.006,0.006-0.008,0.008c-13.419-48.402-77.517-68.281-100.766-17.394
					c-22.61,43.642,18.54,117.78,71.452,97.921c1.705,18.424,3.106,50.977,3.339,63.666c21.796,1.781,53.043-9.427,65.17-17.209
					C2097.822,644.204,2082.974,581.169,2076.781,554.586z"/>
			</defs>
			<use xlink:href="#XMLID_00000061451990808531499750000003804141022675930527_"  style="overflow:visible;fill:#F4D2C6;"/>
			<clipPath id="XMLID_00000166663129842265834230000005902571005458036372_">
				<use xlink:href="#XMLID_00000061451990808531499750000003804141022675930527_"  style="overflow:visible;"/>
			</clipPath>
			<path style="clip-path:url(#XMLID_00000166663129842265834230000005902571005458036372_);fill:#EDA19D;" d="M1956.633,564.111
				c18.609,10.338,50.371,14.044,82.99,3.956c30.957-9.995,41.605-12.198,53.941-20.862c-34.386-15.463-88.471-32.733-128.54-24.819
				C1962.933,532.786,1958.724,553.714,1956.633,564.111z"/>
			<path style="clip-path:url(#XMLID_00000166663129842265834230000005902571005458036372_);fill:#FFFFFF;" d="M2024.064,610.483
				c4.767-0.41,16.321-5.599,17.641-13.638C2037.309,600.244,2028.46,607.084,2024.064,610.483z"/>
		</g>
		<path style="fill:#EDA19D;" d="M2044.163,620.193c6.431-3.018,18.73-13.269,22.773-23.348c0.375,8.918-6.699,35.56-21.532,39.834
			C2045.094,632.57,2044.472,624.3,2044.163,620.193z"/>
	</g>
	<g>
		<g>
			<defs>
				<path id="XMLID_00000008863515156510881510000012315626665405558435_" d="M2092.746,616.357
					c-130.417,74.021-100.149,84.415-105.332,262.585c1.602,202.974-11.192,289.604-22.39,466.893
					c58.176,9.961,269.499,19.095,348.192-10.072c-34.648-200.631-72.908-480.856-137.805-676.186
					C2170.494,649.068,2100.076,619.034,2092.746,616.357z"/>
			</defs>
			<use xlink:href="#XMLID_00000008863515156510881510000012315626665405558435_"  style="overflow:visible;fill:#FFFFFF;"/>
			<clipPath id="XMLID_00000003101071704337195060000016162217370145361299_">
				<use xlink:href="#XMLID_00000008863515156510881510000012315626665405558435_"  style="overflow:visible;"/>
			</clipPath>
		</g>
		<path style="fill:#F1F8FE;" d="M2001.711,1062.144c22.355,0,67.342,0,89.692,0c-0.13,2.86-2.977,167.165-17.129,166.959
			c-7.245,0.725-28.678,1.088-48.384,0.362c-19.706-0.726-37.685-2.541-38.022-6.17
			C1986.767,1219.703,2001.496,1065.309,2001.711,1062.144z"/>
	</g>
	<path style="fill:#59445A;" d="M1970.331,529.329c21.865,15.201,48.28,23.767,74.904,24.292c-6.546-1.98-12.732-5.148-18.163-9.304
		c37.588,5.971,60.294,33.369,52.512,71.704c3.623-3.399,6.385-7.709,7.958-12.422c-1.176,34.384-14.649,83.622,24.794,101.54
		c-4.213-1.885-4.845-15.563-5.837-20.249c20.209,28.228,57.009,34.93,89.551,37.001c8.043-35.927,15.858-75.499-0.807-110.18
		c7.649,6.179,14.544,12.987,21.558,19.866c-1.786-53.823-50.059-91.376-97.787-106.562c11.813,3.304,23.626,6.607,35.439,9.911
		c-36.544-15.396-70.155-52.093-112.392-52.219C2011.921,481.469,1970.88,493.102,1970.331,529.329z"/>
	<path style="fill:#F1F8FE;" d="M1987.513,866.697c17.089-11.715,51.478-35.29,68.563-47.002
		c-6.351,17.205-44.642,86.124-68.563,98.148C1987.513,905.095,1987.513,879.442,1987.513,866.697z"/>
	<g>
		<g>
			<g>
				<defs>
					<path id="XMLID_00000073688146825225225840000004325723487999542687_" d="M1696.543,928.728
						c-3.036,0.056-44.651,2.975-47.691,5.928c-38.301,21.575-8.764,12.873,9.574,10.845c-0.466,0.352-44.911,27.68-39.713,32.769
						c2.482,2.659,11.258,5.673,20.521,7.49c9.263,1.817,19.015,2.438,23.447,0.31c5.146-1.848,44.03-30.345,47.5-33.011
						C1706.782,946.995,1699.942,934.791,1696.543,928.728z"/>
				</defs>
				<use xlink:href="#XMLID_00000073688146825225225840000004325723487999542687_"  style="overflow:visible;fill:#F4D2C6;"/>
				<clipPath id="XMLID_00000072962360360267344250000016357053415147536294_">
					<use xlink:href="#XMLID_00000073688146825225225840000004325723487999542687_"  style="overflow:visible;"/>
				</clipPath>
				<path style="clip-path:url(#XMLID_00000072962360360267344250000016357053415147536294_);fill:#EDA19D;" d="M1680.226,921.894
					c4.61,11.495,9.981,44.396,3.31,61.793c9.901-8.324,29.826-25.073,39.724-33.395c-5.503-9.553-16.577-28.778-22.079-38.329
					C1695.958,914.438,1685.447,919.419,1680.226,921.894z"/>
			</g>
			<path style="fill:#EDA19D;" d="M1618.713,978.27c7.099,3.311,31.791,12.629,42.226,8.412c7.841-2.752,39.616-27.154,46.49-31.584
				c1.698,3.029,5.116,9.126,6.813,12.155C1675.071,996.7,1663.662,1011.185,1618.713,978.27z"/>
		</g>
		<path style="fill:#FFFFFF;" d="M2003.369,683.935c-28.004,34.047-84.226,102.463-112.213,136.494
			c-50.834,24.484-153.261,73.85-204.093,98.335c6.774,12.086,20.406,36.406,27.179,48.488
			c59.313-18.523,160.166-43.469,218.211-65.001c41.41-23.121,101.922-69.094,141.822-95.032
			C2074.2,788.387,2049.798,675.655,2003.369,683.935z"/>
	</g>
</g>
<g>
	<g>
		<path style="fill:#152E60;" d="M2449.404,1048.408c-49.638,195.458-309.214,149.204-460.674,183.111
			c-232.232,55.28-385.866,274.635-617.406,336.563c-198.228,57.752-288.583-79.88-311.578-258.875
			c-6.09-43.869-8.432-87.488-10.628-128.38c-0.488-9.089,2.754-17.515,8.39-23.791c11.046-13.268,34.155-14.551,46.544-2.501
			c6.277,5.636,10.405,13.668,10.893,22.757c5.765,97.457,9.736,209.497,69.029,290.409
			c143.755,168.018,474.335-156.29,615.497-229.248c94.967-58.69,207.421-85.359,318.745-88.301
			c86.1-8.324,192.695-5.057,247.238-82.345c58.196-86.549-42.674-191.933-133.212-190.36c-0.007-0.027-16.828-71.046-16.836-71.08
			c40.373,4.38,82.136,12.913,118.378,32.096C2408.8,876.331,2462.41,963.492,2449.404,1048.408z"/>
	</g>
	<g>
		<g>
			<path style="fill:#152E60;" d="M1083.533,1138.208c-297.633-9.472-297.562-440.993,0.005-450.419
				C1381.167,697.26,1381.095,1128.781,1083.533,1138.208z"/>
			<path style="fill:#324D90;" d="M1256.7,912.998c-7.075,228.898-339.292,228.843-346.332-0.004
				C917.443,684.1,1249.659,684.155,1256.7,912.998z"/>
		</g>
		<path style="fill:#152E60;" d="M1150.215,1184.555c-27.432,0-82.636,0-110.061,0c0.008-59.164-0.006-178.064,0-237.202
			c0-30.392,24.638-55.03,55.031-55.03c30.393,0,55.031,24.638,55.031,55.031
			C1150.206,1006.433,1150.221,1125.479,1150.215,1184.555z"/>
		<path style="fill:#324D90;" d="M1128.9,1184.555c-27.432,0-82.636,0-110.061,0c0.011-59.17-0.008-178.059,0-237.202
			c0-30.392,24.638-55.03,55.031-55.03c30.392,0,55.031,24.638,55.031,55.031C1128.895,1006.441,1128.903,1125.473,1128.9,1184.555z
			"/>
		<path style="fill:#152E60;" d="M1018.838,1184.555c-3.558-78.692-3.587-158.509-0.001-237.201
			C1022.425,1026.046,1022.397,1105.863,1018.838,1184.555L1018.838,1184.555L1018.838,1184.555z"/>
	</g>
</g>
<g>
	<g>
		<path style="fill:#4292F3;" d="M2391.876,1614.451c0,7.667,6.216,13.883,13.883,13.883c69.4-0.008,208.993,0.006,278.371,0
			c7.667,0,13.883-6.216,13.883-13.883c-0.051-25.538,0.037-77.005,0-102.542c-76.303,0-229.852,0-306.136,0
			C2391.876,1537.467,2391.876,1588.899,2391.876,1614.451z"/>
		<path style="fill:#152E60;" d="M2640.591,1449.106c-47.721,0.012-143.595-0.009-191.293,0
			c-33.911-0.164-59.965,29.313-57.422,62.803c76.303,0,229.852,0,306.136,0C2700.555,1478.418,2674.502,1448.942,2640.591,1449.106
			z"/>
	</g>
	<path style="fill:#DCECFD;" d="M2555.474,1527.868c-5.249-0.005-15.812,0.004-21.06,0c-5.787,0.161-3.464-9.087-3.906-12.415
		c0.364-2.112-0.942-9.786,1.144-11.27c1.429-2.153,11.172-0.776,13.292-1.145c3.401,0.682,14.659-2.33,14.435,3.906
		c0,0,0,8.509,0,8.509C2558.903,1518.78,2561.286,1528.03,2555.474,1527.868z"/>
	<g>
		<path style="fill:#152E60;" d="M2598.955,1457.703c-26.924,0-81.105,0-108.022,0c0.024-5.094-0.017-15.316,0-20.406
			c1.443-30.066,33.622-22.971,54.011-23.659c20.365,0.682,52.593-6.393,54.01,23.66
			C2598.931,1442.375,2598.973,1452.624,2598.955,1457.703z M2498.933,1449.703c22.936,0,69.092,0,92.022,0
			c-0.02-3.097,0.015-9.312,0-12.406c0.013-22.365-32.445-14.287-46.012-15.66c-13.563,1.376-46.024-6.708-46.01,15.661
			C2498.953,1440.384,2498.918,1446.615,2498.933,1449.703z"/>
	</g>
</g>
<path style="fill:#324D90;" d="M262.786,1628.334c879.933-8.29,1772.887-8.373,2652.816-0.001
	C2035.677,1636.707,1142.716,1636.624,262.786,1628.334L262.786,1628.334L262.786,1628.334z"/>
<g>
	<path style="fill:#FFFFFF;" d="M698.286,1182.194c-114.507,13.552-125.492,24.537-139.044,139.044
		c-13.552-114.507-24.537-125.492-139.044-139.044c114.507-13.551,125.492-24.537,139.044-139.044
		C572.794,1157.657,583.78,1168.643,698.286,1182.194z"/>
	<path style="fill:#FFFFFF;" d="M1819.776,602.297c-57.253,6.776-62.746,12.269-69.522,69.522
		c-6.776-57.253-12.269-62.746-69.522-69.522c57.253-6.776,62.746-12.268,69.522-69.522
		C1757.031,590.028,1762.523,595.521,1819.776,602.297z"/>
	<path style="fill:#FFFFFF;" d="M2155.063,338.63c-40.976,4.849-44.907,8.781-49.757,49.757
		c-4.849-40.976-8.781-44.907-49.757-49.757c40.976-4.849,44.907-8.781,49.757-49.757
		C2110.156,329.849,2114.087,333.781,2155.063,338.63z"/>
	<path style="fill:#FFFFFF;" d="M571.506,812.346c-33.676,3.985-36.907,7.216-40.893,40.893
		c-3.986-33.676-7.216-36.907-40.893-40.893c33.676-3.986,36.907-7.216,40.893-40.893
		C534.599,805.13,537.83,808.361,571.506,812.346z"/>
	<path style="fill:#FFFFFF;" d="M2571.81,663.347c-99.128,11.732-108.639,21.242-120.37,120.37
		c-11.731-99.128-21.242-108.639-120.37-120.37c99.128-11.732,108.639-21.242,120.37-120.37
		C2463.171,642.105,2472.681,651.615,2571.81,663.347z"/>
	<path style="fill:#FFFFFF;" d="M1487.004,425.608c-30.653,3.628-33.594,6.569-37.222,37.222
		c-3.628-30.653-6.569-33.594-37.222-37.222c30.653-3.628,33.594-6.569,37.222-37.222
		C1453.41,419.04,1456.35,421.981,1487.004,425.608z"/>
	<path style="fill:#FFFFFF;" d="M2626.84,1295.591c-50.673,5.997-55.534,10.859-61.531,61.531
		c-5.997-50.673-10.858-55.535-61.531-61.531c50.673-5.997,55.534-10.859,61.531-61.532
		C2571.306,1284.732,2576.167,1289.594,2626.84,1295.591z"/>
	<path style="fill:#FFFFFF;" d="M1910.378,1464.596c-37.57,4.446-41.174,8.051-45.62,45.62c-4.446-37.57-8.051-41.174-45.62-45.62
		c37.57-4.446,41.174-8.051,45.62-45.62C1869.204,1456.546,1872.808,1460.15,1910.378,1464.596z"/>
	<path style="fill:#FFFFFF;" d="M740.699,1438.273c-45.006,5.326-49.324,9.644-54.65,54.65c-5.326-45.006-9.644-49.324-54.65-54.65
		c45.006-5.326,49.324-9.644,54.65-54.65C691.375,1428.629,695.693,1432.947,740.699,1438.273z"/>
</g>
</svg>
